<svg xmlns="http://www.w3.org/2000/svg" version="1.1" xmlns:xlink="http://www.w3.org/1999/xlink" xmlns:svgjs="http://svgjs.dev/svgjs" width="1500" height="1500" viewBox="0 0 1500 1500"><rect width="1500" height="1500" fill="#398378"></rect><g transform="matrix(0.6666666666666666,0,0,0.6666666666666666,250,250.00093652110752)"><svg viewBox="0 0 280 280" data-background-color="#398378" preserveAspectRatio="xMidYMid meet" height="1500" width="1500" xmlns="http://www.w3.org/2000/svg" xmlns:xlink="http://www.w3.org/1999/xlink"><g id="tight-bounds" transform="matrix(1,0,0,1,0,-0.0001639599065015318)"><svg viewBox="0 0 280 280" height="280" width="280"><g><svg viewBox="0 0 280 280" height="280" width="280"><g><svg viewBox="0 0 280 280" height="280" width="280"><g id="textblocktransform"><svg viewBox="0 0 280 280" height="280" width="280" id="textblock"><g><svg viewBox="0 0 280 280" height="280" width="280"><g transform="matrix(1,0,0,1,57.50420886156945,57.50420886156945)"><svg viewBox="0 0 164.9915822768611 164.9915822768611" height="164.9915822768611" width="164.9915822768611"><g id="icon-0"><circle r="82" cx="82.49579113843055" cy="82.49579113843055" fill="#ffffff" data-fill-palette-color="accent"></circle><svg xmlns="http://www.w3.org/2000/svg" xmlns:xlink="http://www.w3.org/1999/xlink" version="1.1" x="24.748737341529164" y="24.74873734152917" viewBox="12.8660196425346 4.999333333333333 74.26600303333419 90.00075614677445" enable-background="new 0 0 100 100" xml:space="preserve" height="115.49410759380275" width="115.49410759380275" class="icon-xg-0" data-fill-palette-color="quaternary" id="xg-0"><path d="M74.708 77.352c-0.124 0-15.458 12.263-15.51 12.403-0.062 0.163 3.995 5.209 4.217 5.245 0.101 0.018 3.569-2.682 7.714-6.007 4.145-3.324 7.598-6.138 7.673-6.253 0.101-0.152-0.446-0.939-1.934-2.799C75.729 78.52 74.756 77.352 74.708 77.352z" fill="#398378" data-fill-palette-color="quaternary"></path><path d="M86.824 47.667c-0.309-0.309-0.521-0.309-36.821-0.309-9.075 0-15.894-0.005-21.023 0-15.388 0.015-15.567 0.077-15.799 0.309-0.277 0.277-0.309 0.528-0.309 2.262 0 2.771-0.375 2.551 4.814 2.551h1.478l2.388 2.029c1.404 1.426 5.335 4.665 11.87 9.778 3.853 3.014 4.294 3.409 4.464 3.97 0.789 2.6 3.139 7.557 4.649 9.812 1.315 1.967 2.324 2.932 4.464 4.258 3.378 2.096 11.12 5.771 12.034 5.719 0.115-0.006 3.29-2.438 7.033-5.41 3.746-2.973 6.9-5.496 7.016-5.615 0.174-0.18 0.122-0.847-0.309-4.031-0.862-6.383-1.056-8.432-0.967-10.225 0.098-1.992 0.41-3.221 1.666-6.396 0.522-1.324 0.979-2.741 1.027-3.146l0.104-0.74h5.924 5.926l0.35-0.351c0.309-0.329 0.329-0.532 0.329-2.263C87.133 48.182 87.102 47.944 86.824 47.667zM34.39 56.779c-1.197-0.769-3.263-2.043-4.587-2.84l-2.407-1.459h2.982 2.962l0.35 0.391c0.202 0.215 0.657 0.576 1.008 0.781 0.762 0.445 1.275 1.308 1.852 3.146 0.222 0.71 0.412 1.375 0.412 1.461C36.961 58.445 37.121 58.533 34.39 56.779zM46.527 52.83c-0.053 0.191-0.238 1.472-0.412 2.839-0.355 2.808-0.541 3.998-0.802 5.122l-0.185 0.781-0.206-0.781c-0.116-0.427-0.395-1.253-0.617-1.852-0.582-1.562-1.757-4.03-2.51-5.268-0.357-0.585-0.638-1.097-0.638-1.131 0-0.033 1.23-0.062 2.736-0.062h2.736L46.527 52.83zM69.318 53.035c-0.858 0.734-1.805 2.185-2.201 3.374-0.18 0.536-0.408 1.756-0.493 2.694-0.465 5.119-1.567 9.32-2.899 11.066-0.455 0.596-2.349 1.58-3.766 1.954-1.163 0.31-3.471 0.31-4.525 0-1.744-0.509-3.517-1.938-4.668-3.765l-0.618-0.987 0.247-2.201c0.382-3.414 0.828-8.515 0.946-10.696l0.124-1.994H60.7h9.256L69.318 53.035z" fill="#398378" data-fill-palette-color="quaternary"></path><path d="M16.553 45.411c2.233-0.032 6.001-0.046 12.427-0.053 5.129-0.005 11.948 0 21.023 0 21.445 0 30.292 0 34.007 0.064 0.624-0.141 0.859-0.316 0.942-0.533 0.786-2.047-1.291-10.896-3.683-15.675-1.295-2.589-3.494-6.018-4.875-7.632-3.64-4.251-10.414-8.503-16.332-10.244-2.832-0.833-5.164-1.905-5.164-2.366 0-1.696-2.563-3.97-4.463-3.97-0.092 0-0.174-0.006-0.267 0-0.432 0-0.896 0.107-1.358 0.309-1.486 0.565-2.762 1.806-3.003 3.044-0.067 0.213-0.103 0.416-0.103 0.617 0 0.325-1.165 0.953-2.839 1.584-11.312 4.294-18.313 8.362-23.533 18.658-2.391 4.778-4.468 13.627-3.682 15.675C15.731 45.1 15.961 45.271 16.553 45.411zM46.218 12.162l0.494 1.728c-14.706 5.569-21.464 9.503-26.084 27.729-0.943-0.023-1.255-0.035-2.386-0.124C21.377 26.299 28.808 16.616 46.218 12.162z" fill="#398378" data-fill-palette-color="quaternary"></path></svg></g></svg></g><g id="text-0"><path d="M7.174 77.796l2.663 1.748c-0.443 0.577-0.879 1.204-1.307 1.88-0.434 0.674-0.869 1.43-1.305 2.269-0.427 0.835-0.813 1.738-1.159 2.71v0c-0.562 1.579-0.697 3.041-0.405 4.384 0.286 1.341 0.839 2.55 1.659 3.627 0.813 1.075 1.82 2.002 3.019 2.782 1.203 0.789 2.448 1.412 3.733 1.869v0c1.624 0.578 3.183 0.874 4.676 0.887 1.487 0.011 2.84-0.217 4.059-0.684 1.214-0.476 2.259-1.155 3.135-2.039 0.877-0.884 1.525-1.917 1.947-3.1v0c0.392-1.1 0.694-2.13 0.906-3.092 0.213-0.962 0.368-1.793 0.466-2.493v0c0.111-0.818 0.169-1.568 0.174-2.25v0l3.04 0.326c-0.016 0.794-0.086 1.659-0.21 2.594v0c-0.108 0.79-0.268 1.695-0.48 2.714-0.218 1.017-0.532 2.102-0.942 3.253v0c-0.738 2.072-1.724 3.77-2.96 5.095-1.24 1.317-2.654 2.275-4.244 2.876-1.59 0.601-3.314 0.87-5.171 0.807-1.849-0.068-3.771-0.456-5.766-1.167v0c-2.289-0.815-4.194-1.85-5.714-3.104-1.522-1.248-2.675-2.635-3.458-4.159-0.791-1.521-1.22-3.15-1.285-4.888-0.057-1.742 0.237-3.518 0.88-5.328v0c0.392-1.1 0.819-2.108 1.282-3.023 0.457-0.918 0.92-1.744 1.39-2.477 0.464-0.735 0.923-1.408 1.377-2.017z" fill="#ffffff" data-fill-palette-color="primary"></path><path d="M40.843 74.154l-14.584-9.929c-0.527-0.359-1.395-0.863-2.603-1.513v0l1.397-2.793 2.705 1.435 0.023-0.034c-0.245-0.774-0.43-1.491-0.555-2.151-0.129-0.654-0.192-1.292-0.188-1.913 0.004-0.621 0.14-1.128 0.407-1.521v0c0.34-0.548 0.899-1.248 1.675-2.099v0l2.236 2.433c-0.65 0.666-1.067 1.158-1.251 1.476v0c-0.267 0.393-0.365 0.934-0.293 1.624 0.067 0.686 0.199 1.33 0.396 1.932v0c0.228 0.763 0.531 1.56 0.909 2.392v0l11.605 7.901z" fill="#ffffff" data-fill-palette-color="primary"></path><path d="M61.837 43.637l-3.196-3.533c-0.394 0.394-0.769 0.769-1.123 1.126-0.354 0.357-0.699 0.715-1.034 1.072-0.33 0.353-0.623 0.682-0.879 0.987v0c-1.321 1.534-2.08 2.815-2.275 3.843-0.2 1.023 0.094 1.97 0.882 2.841v0c0.651 0.72 1.362 1.06 2.133 1.022 0.776-0.043 1.523-0.39 2.243-1.041v0c0.991-0.897 1.72-1.867 2.185-2.911 0.465-1.043 0.82-2.179 1.064-3.406zM65.62 47.257l-1.853-1.426c-0.466 1.437-0.962 2.705-1.487 3.803-0.53 1.093-1.281 2.079-2.253 2.958v0c-1.384 1.252-2.789 1.915-4.215 1.987-1.421 0.068-2.833-0.673-4.235-2.222v0c-0.733-0.81-1.164-1.702-1.293-2.674-0.129-0.972-0.039-1.965 0.271-2.978 0.305-1.008 0.78-2.01 1.426-3.006 0.641-0.991 1.376-1.918 2.208-2.78v0c0.331-0.382 0.783-0.859 1.354-1.431 0.572-0.572 1.014-1.018 1.329-1.339v0c-0.656-0.725-1.261-1.353-1.816-1.886-0.555-0.532-1.118-0.906-1.688-1.122-0.571-0.216-1.151-0.245-1.74-0.087-0.589 0.158-1.256 0.574-2.002 1.248v0c-0.599 0.542-1.144 1.103-1.633 1.684-0.495 0.576-0.922 1.1-1.283 1.572v0c-0.423 0.575-0.794 1.121-1.112 1.638v0l-2.438-1.693c0.409-0.59 0.865-1.208 1.368-1.856v0c0.427-0.57 0.947-1.2 1.558-1.89 0.616-0.685 1.319-1.385 2.109-2.1v0c1.052-0.952 2.041-1.568 2.968-1.848 0.937-0.28 1.823-0.317 2.658-0.112 0.836 0.196 1.627 0.569 2.373 1.12 0.742 0.546 1.449 1.192 2.123 1.937v0l6.728 7.436c0.264 0.292 0.547 0.594 0.848 0.907 0.297 0.308 0.602 0.604 0.914 0.889 0.308 0.28 0.632 0.567 0.973 0.863v0z" fill="#ffffff" data-fill-palette-color="primary"></path><path d="M79.715 37.03l-0.584-1.153 2.949-20.713c-1.008 0.609-1.723 1.029-2.146 1.259-0.43 0.233-0.92 0.489-1.471 0.768v0l-6.076 3.078-1.247-2.461 13.986-7.086 0.662 1.308-2.869 20.421c0.872-0.502 1.452-0.835 1.743-0.997 0.291-0.162 0.572-0.313 0.844-0.451v0l7.837-3.97 1.247 2.461z" fill="#ffffff" data-fill-palette-color="primary"></path><path d="M122.786 18.572l1.206 2.604c-0.59 0.321-1.202 0.623-1.836 0.906-0.64 0.284-1.35 0.565-2.13 0.843-0.78 0.279-1.605 0.512-2.474 0.699v0c-1.367 0.294-2.675 0.378-3.924 0.251-1.257-0.132-2.411-0.526-3.462-1.182-1.05-0.656-1.973-1.603-2.766-2.841-0.795-1.245-1.404-2.846-1.825-4.804v0c-0.381-1.772-0.471-3.384-0.27-4.836 0.195-1.451 0.625-2.727 1.29-3.828 0.659-1.1 1.52-2.004 2.582-2.712 1.055-0.713 2.262-1.216 3.623-1.508v0c1.34-0.288 2.554-0.279 3.64 0.029 1.093 0.306 2.057 0.831 2.89 1.576 0.828 0.752 1.525 1.685 2.092 2.799 0.574 1.119 1.002 2.332 1.282 3.639v0l-0.229 1.934-13.197 2.84c0.181 0.843 0.472 1.662 0.872 2.457 0.4 0.796 0.939 1.478 1.617 2.047 0.678 0.569 1.49 0.971 2.436 1.205 0.947 0.24 2.061 0.223 3.342-0.053v0c0.816-0.176 1.556-0.383 2.219-0.623 0.662-0.247 1.232-0.484 1.711-0.712 0.477-0.235 0.914-0.478 1.311-0.73zM108.834 12.337l10.301-2.216c-0.041-0.192-0.175-0.604-0.401-1.236-0.221-0.64-0.557-1.282-1.009-1.928-0.45-0.639-1.051-1.173-1.802-1.601-0.744-0.423-1.633-0.523-2.668-0.301v0c-1.148 0.247-2.035 0.688-2.663 1.322-0.634 0.636-1.1 1.327-1.397 2.071-0.297 0.751-0.451 1.485-0.463 2.204-0.02 0.712 0.014 1.274 0.102 1.685z" fill="#ffffff" data-fill-palette-color="primary"></path><path d="M155.338 18.494l0.47 2.831c-0.655 0.153-1.325 0.281-2.011 0.384-0.693 0.103-1.452 0.185-2.278 0.246-0.826 0.061-1.683 0.066-2.571 0.016v0c-1.396-0.08-2.679-0.348-3.849-0.803-1.177-0.462-2.184-1.149-3.022-2.061-0.838-0.912-1.475-2.07-1.91-3.475-0.435-1.412-0.595-3.117-0.481-5.116v0c0.104-1.809 0.447-3.387 1.027-4.734 0.574-1.347 1.328-2.463 2.263-3.347 0.928-0.885 1.998-1.527 3.211-1.926 1.206-0.406 2.504-0.57 3.893-0.489v0c1.369 0.079 2.536 0.411 3.502 0.997 0.972 0.586 1.761 1.349 2.366 2.288 0.598 0.945 1.022 2.03 1.271 3.254 0.255 1.232 0.345 2.515 0.268 3.85v0l-0.736 1.803-13.477-0.776c-0.05 0.861 0.013 1.727 0.186 2.601 0.174 0.873 0.512 1.675 1.014 2.404 0.502 0.729 1.178 1.332 2.027 1.809 0.849 0.484 1.927 0.764 3.235 0.839v0c0.833 0.048 1.602 0.045 2.306-0.01 0.704-0.061 1.317-0.138 1.838-0.23 0.522-0.099 1.008-0.217 1.458-0.355zM143.55 8.77l10.519 0.606c0.011-0.196-0.008-0.629-0.058-1.298-0.043-0.675-0.196-1.385-0.459-2.127-0.264-0.736-0.701-1.41-1.311-2.024-0.604-0.606-1.435-0.939-2.492-1v0c-1.172-0.068-2.145 0.121-2.918 0.566-0.78 0.445-1.413 0.986-1.898 1.625-0.486 0.645-0.83 1.312-1.033 2-0.209 0.681-0.326 1.232-0.35 1.652z" fill="#ffffff" data-fill-palette-color="primary"></path><path d="M200.256 6.432l-1.751 2.661c-0.577-0.444-1.203-0.88-1.878-1.309-0.673-0.435-1.429-0.871-2.268-1.308-0.834-0.428-1.737-0.816-2.709-1.163v0c-1.579-0.564-3.04-0.701-4.383-0.41-1.341 0.285-2.551 0.836-3.629 1.655-1.076 0.812-2.004 1.817-2.786 3.015-0.79 1.202-1.415 2.446-1.874 3.73v0c-0.58 1.623-0.878 3.182-0.893 4.676-0.013 1.487 0.214 2.84 0.679 4.059 0.474 1.215 1.152 2.261 2.035 3.138 0.883 0.878 1.915 1.528 3.098 1.951v0c1.099 0.393 2.13 0.696 3.091 0.91 0.961 0.214 1.792 0.37 2.492 0.469v0c0.818 0.112 1.568 0.171 2.25 0.177v0l-0.329 3.039c-0.794-0.017-1.659-0.088-2.594-0.214v0c-0.79-0.109-1.694-0.27-2.714-0.483-1.017-0.219-2.101-0.535-3.251-0.946v0c-2.071-0.74-3.768-1.729-5.092-2.966-1.315-1.241-2.272-2.657-2.871-4.248-0.599-1.591-0.866-3.315-0.8-5.172 0.07-1.849 0.461-3.77 1.174-5.765v0c0.818-2.288 1.855-4.191 3.111-5.709 1.25-1.521 2.638-2.672 4.164-3.453 1.522-0.789 3.152-1.216 4.89-1.279 1.742-0.055 3.518 0.241 5.326 0.887v0c1.099 0.393 2.106 0.821 3.022 1.286 0.918 0.458 1.743 0.922 2.475 1.393 0.735 0.464 1.407 0.924 2.015 1.379z" fill="#ffffff" data-fill-palette-color="primary"></path><path d="M211.016 32.647v0c-1.596 2.179-2.297 4.16-2.104 5.942 0.198 1.786 1.13 3.288 2.795 4.506v0c1.637 1.199 3.306 1.609 5.004 1.23 1.694-0.383 3.315-1.632 4.863-3.746v0c1.644-2.245 2.381-4.28 2.21-6.104-0.169-1.814-1.097-3.339-2.783-4.573v0c-1.687-1.235-3.372-1.632-5.057-1.193-1.685 0.44-3.327 1.753-4.928 3.938zM208.174 30.515v0c1.251-1.709 2.562-2.936 3.932-3.682 1.372-0.737 2.725-1.142 4.059-1.217 1.338-0.081 2.585 0.088 3.742 0.507 1.157 0.418 2.166 0.942 3.025 1.571v0c0.805 0.589 1.592 1.364 2.363 2.323 0.764 0.955 1.309 2.061 1.634 3.317 0.325 1.256 0.347 2.639 0.066 4.149-0.272 1.509-1.033 3.117-2.284 4.825v0c-1.299 1.774-2.654 3.045-4.065 3.812-1.402 0.765-2.771 1.188-4.109 1.269-1.334 0.075-2.587-0.103-3.761-0.533-1.168-0.426-2.169-0.944-3.001-1.554v0c-0.854-0.625-1.654-1.417-2.399-2.375-0.751-0.962-1.284-2.067-1.598-3.315-0.309-1.244-0.308-2.635 0.003-4.174 0.312-1.529 1.11-3.17 2.393-4.923z" fill="#ffffff" data-fill-palette-color="primary"></path><path d="M238.445 57.737v0c-2.156 1.628-3.398 3.322-3.726 5.084-0.324 1.767 0.135 3.474 1.379 5.12v0c1.223 1.619 2.702 2.492 4.439 2.619 1.732 0.121 3.644-0.608 5.734-2.187v0c2.221-1.677 3.512-3.413 3.875-5.209 0.361-1.786-0.089-3.513-1.349-5.181v0c-1.26-1.668-2.76-2.534-4.5-2.598-1.74-0.064-3.691 0.72-5.852 2.352zM236.337 54.877v0c1.69-1.276 3.299-2.074 4.826-2.394 1.526-0.31 2.938-0.309 4.237 0.003 1.304 0.308 2.45 0.829 3.438 1.563 0.988 0.734 1.803 1.526 2.444 2.376v0c0.601 0.796 1.132 1.764 1.594 2.904 0.457 1.135 0.66 2.35 0.61 3.647-0.05 1.296-0.427 2.627-1.131 3.993-0.695 1.366-1.887 2.688-3.577 3.963v0c-1.755 1.325-3.418 2.152-4.991 2.48-1.563 0.329-2.996 0.34-4.3 0.032-1.299-0.312-2.448-0.843-3.448-1.593-0.996-0.745-1.805-1.529-2.426-2.352v0c-0.638-0.845-1.176-1.833-1.614-2.966-0.442-1.137-0.634-2.349-0.576-3.634 0.062-1.28 0.464-2.612 1.205-3.997 0.739-1.375 1.976-2.716 3.709-4.025z" fill="#ffffff" data-fill-palette-color="primary"></path><path d="M246.982 91.135l29.234-11.197 1.546 2.984-17.607 6.744 10.989 5.777 1.642 4.287-10.712-5.654-8.799 13.487-1.511-3.945 7.442-11.081-2.758-1.451-8.271 3.168z" fill="#ffffff" data-fill-palette-color="primary"></path><path d="M7.445 139.321c0-2.005 1.626-3.631 3.631-3.631 2.005 0 3.631 1.626 3.631 3.631 0 2.005-1.626 3.631-3.631 3.631-2.005 0-3.631-1.626-3.631-3.631z" fill="#ffffff" data-fill-palette-color="primary"></path><path d="M263.997 139.321c0-2.005 1.626-3.631 3.631-3.631 2.005 0 3.631 1.626 3.63 3.631 0 2.005-1.626 3.631-3.63 3.631-2.005 0-3.631-1.626-3.631-3.631z" fill="#ffffff" data-fill-palette-color="primary"></path></g><g id="text-1"><path d="M42.209 191.002l-3.519 0.401c-0.037-0.811-0.109-1.659-0.217-2.544-0.108-0.886-0.277-1.839-0.507-2.862-0.224-1.024-0.532-2.071-0.924-3.141v0c-0.64-1.746-1.564-3.092-2.771-4.037-1.198-0.941-2.528-1.581-3.989-1.92-1.462-0.339-2.983-0.417-4.565-0.235-1.581 0.182-3.086 0.535-4.513 1.058v0c-1.803 0.661-3.344 1.515-4.623 2.563-1.285 1.05-2.281 2.206-2.988 3.47-0.708 1.264-1.119 2.586-1.235 3.966-0.122 1.382 0.056 2.726 0.535 4.033v0c0.449 1.223 0.924 2.322 1.425 3.294 0.505 0.964 0.964 1.782 1.377 2.456v0c0.483 0.784 0.965 1.468 1.446 2.05v0l-2.827 1.872c-0.549-0.688-1.101-1.476-1.658-2.363v0c-0.475-0.744-0.983-1.627-1.525-2.651-0.535-1.025-1.037-2.179-1.507-3.459v0c-0.841-2.294-1.204-4.445-1.087-6.455 0.125-2.005 0.652-3.832 1.58-5.48 0.93-1.642 2.213-3.092 3.848-4.35 1.635-1.257 3.558-2.292 5.77-3.102v0c2.53-0.928 4.887-1.398 7.072-1.411 2.188-0.007 4.161 0.357 5.92 1.093 1.755 0.744 3.276 1.838 4.565 3.281 1.286 1.437 2.297 3.159 3.033 5.166v0c0.449 1.223 0.803 2.387 1.063 3.492 0.256 1.113 0.445 2.15 0.566 3.111 0.121 0.96 0.206 1.862 0.255 2.704z" fill="#ffffff" data-fill-palette-color="primary"></path><path d="M22.796 217.394l16.147-11.123c0.587-0.404 1.459-1.1 2.617-2.087v0l2.338 2.568-2.584 2.225 0.029 0.042c0.903 0.054 1.719 0.151 2.45 0.29 0.732 0.13 1.422 0.323 2.067 0.579 0.642 0.25 1.113 0.593 1.414 1.029v0c0.427 0.571 0.924 1.432 1.493 2.581v0l-3.416 1.339c-0.43-0.948-0.773-1.577-1.028-1.887v0c-0.3-0.436-0.822-0.757-1.565-0.962-0.739-0.2-1.461-0.32-2.166-0.362v0c-0.875-0.073-1.82-0.082-2.836-0.025v0l-12.852 8.853z" fill="#ffffff" data-fill-palette-color="primary"></path><path d="M54.367 244.172l3.554-3.924c-0.476-0.395-0.932-0.766-1.367-1.114-0.435-0.348-0.868-0.69-1.297-1.025-0.434-0.329-0.833-0.617-1.196-0.863v0c-1.841-1.283-3.339-1.98-4.493-2.092-1.158-0.106-2.173 0.321-3.043 1.282v0c-0.729 0.805-1.029 1.632-0.901 2.481 0.128 0.849 0.595 1.638 1.4 2.367v0c1.102 0.998 2.253 1.698 3.455 2.099 1.206 0.397 2.502 0.66 3.888 0.789zM50.774 248.76l1.376-2.201c-1.642-0.361-3.099-0.774-4.372-1.24-1.267-0.461-2.442-1.182-3.523-2.162v0c-1.539-1.394-2.424-2.874-2.655-4.438-0.231-1.565 0.435-3.21 1.998-4.935v0c0.806-0.89 1.742-1.463 2.805-1.717 1.059-0.249 2.166-0.258 3.321-0.027 1.15 0.227 2.309 0.64 3.478 1.241 1.168 0.601 2.277 1.312 3.327 2.135v0c0.459 0.333 1.036 0.782 1.732 1.349 0.696 0.566 1.239 1.003 1.628 1.31v0c0.724-0.8 1.351-1.537 1.88-2.212 0.524-0.67 0.874-1.333 1.048-1.99 0.179-0.653 0.15-1.298-0.088-1.935-0.243-0.632-0.779-1.324-1.609-2.075v0c-0.664-0.601-1.342-1.142-2.034-1.622-0.692-0.48-1.32-0.893-1.884-1.241v0c-0.678-0.404-1.32-0.756-1.926-1.058v0l1.602-2.875c0.696 0.384 1.429 0.818 2.197 1.304v0c0.678 0.404 1.434 0.909 2.266 1.517 0.832 0.608 1.684 1.305 2.554 2.093v0c1.172 1.062 1.96 2.092 2.366 3.091 0.414 0.998 0.559 1.971 0.432 2.919-0.131 0.953-0.458 1.87-0.981 2.751-0.528 0.877-1.169 1.73-1.92 2.56v0l-7.484 8.262c-0.292 0.322-0.589 0.666-0.894 1.032-0.313 0.366-0.61 0.739-0.889 1.117-0.28 0.369-0.561 0.76-0.843 1.174v0z" fill="#ffffff" data-fill-palette-color="primary"></path><path d="M68.57 260.742l0.653-1.278 20.534-10.898c-1.201-0.514-2.044-0.884-2.531-1.111-0.49-0.235-1.04-0.508-1.65-0.82v0l-6.736-3.441 1.394-2.729 15.512 7.925-0.737 1.442-20.232 10.801c1.022 0.446 1.702 0.748 2.041 0.905 0.339 0.158 0.659 0.314 0.961 0.468v0l8.685 4.438-1.394 2.729z" fill="#ffffff" data-fill-palette-color="primary"></path><path d="M119.6 274.963l0.001 3.181c-0.743 0.057-1.502 0.079-2.278 0.066-0.776-0.013-1.621-0.059-2.536-0.138-0.921-0.08-1.865-0.228-2.832-0.443v0c-1.51-0.337-2.867-0.862-4.071-1.575-1.205-0.707-2.187-1.638-2.944-2.795-0.759-1.15-1.253-2.536-1.483-4.158-0.223-1.621-0.091-3.521 0.395-5.701v0c0.437-1.961 1.094-3.629 1.97-5.005 0.877-1.376 1.905-2.465 3.086-3.266 1.18-0.801 2.466-1.314 3.858-1.539 1.4-0.23 2.859-0.176 4.375 0.162v0c1.477 0.329 2.695 0.903 3.653 1.722 0.965 0.82 1.692 1.799 2.183 2.937 0.49 1.138 0.764 2.406 0.821 3.803 0.052 1.388-0.083 2.808-0.407 4.258v0l-1.121 1.847-14.646-3.264c-0.208 0.934-0.298 1.898-0.269 2.891 0.037 0.989 0.266 1.926 0.687 2.813 0.421 0.887 1.053 1.671 1.895 2.352 0.849 0.683 1.986 1.183 3.41 1.501v0c0.908 0.202 1.751 0.335 2.53 0.397 0.779 0.062 1.462 0.086 2.049 0.071 0.593-0.007 1.151-0.046 1.674-0.117zM108.4 262.182l11.427 2.547c0.047-0.212 0.109-0.692 0.185-1.44 0.068-0.743 0.025-1.545-0.131-2.407-0.157-0.856-0.514-1.672-1.071-2.45-0.558-0.771-1.414-1.285-2.566-1.542v0c-1.265-0.282-2.367-0.253-3.305 0.087-0.933 0.348-1.722 0.833-2.368 1.454-0.645 0.614-1.14 1.279-1.488 1.994-0.354 0.714-0.582 1.299-0.683 1.757z" fill="#ffffff" data-fill-palette-color="primary"></path><path d="M155.895 275.393l0.839 3.068c-0.701 0.251-1.428 0.472-2.18 0.665-0.752 0.192-1.579 0.371-2.481 0.536-0.909 0.166-1.859 0.272-2.849 0.32v0c-1.546 0.074-2.993-0.075-4.343-0.445-1.349-0.364-2.542-1.003-3.577-1.919-1.035-0.909-1.878-2.115-2.527-3.62-0.643-1.505-1.017-3.373-1.124-5.603v0c-0.096-2.007 0.098-3.789 0.581-5.348 0.483-1.559 1.188-2.88 2.114-3.964 0.927-1.084 2.032-1.918 3.316-2.502 1.29-0.592 2.711-0.924 4.263-0.998v0c1.512-0.072 2.838 0.16 3.978 0.697 1.147 0.536 2.107 1.289 2.88 2.257 0.773 0.969 1.372 2.119 1.795 3.451 0.417 1.325 0.66 2.731 0.731 4.216v0l-0.594 2.076-14.989 0.715c0.046 0.956 0.213 1.909 0.504 2.861 0.296 0.944 0.765 1.788 1.405 2.532 0.64 0.744 1.457 1.334 2.449 1.768 0.999 0.435 2.228 0.617 3.685 0.548v0c0.929-0.044 1.777-0.139 2.544-0.284 0.768-0.145 1.433-0.303 1.996-0.472 0.57-0.163 1.098-0.348 1.584-0.555zM141.719 266.02l11.694-0.558c-0.01-0.217-0.077-0.696-0.201-1.438-0.13-0.734-0.384-1.497-0.761-2.287-0.377-0.784-0.937-1.477-1.679-2.081-0.742-0.597-1.703-0.867-2.883-0.81v0c-1.295 0.062-2.35 0.38-3.164 0.956-0.808 0.582-1.442 1.258-1.901 2.027-0.46 0.763-0.763 1.535-0.909 2.316-0.153 0.782-0.218 1.407-0.196 1.875z" fill="#ffffff" data-fill-palette-color="primary"></path><path d="M188.411 238.192l0.334 3.525c-0.811 0.022-1.66 0.078-2.548 0.169-0.888 0.091-1.844 0.242-2.87 0.453-1.028 0.204-2.081 0.493-3.158 0.865v0c-1.758 0.607-3.12 1.505-4.089 2.694-0.964 1.18-1.629 2.498-1.995 3.953-0.366 1.455-0.473 2.975-0.32 4.559 0.152 1.584 0.477 3.095 0.973 4.532v0c0.627 1.815 1.452 3.372 2.475 4.671 1.025 1.305 2.163 2.322 3.414 3.053 1.251 0.731 2.565 1.168 3.942 1.309 1.38 0.148 2.727-0.005 4.042-0.459v0c1.232-0.426 2.339-0.88 3.321-1.363 0.973-0.487 1.8-0.931 2.48-1.33v0c0.793-0.468 1.486-0.937 2.078-1.407v0l1.818 2.861c-0.698 0.536-1.496 1.073-2.394 1.614v0c-0.753 0.461-1.646 0.953-2.679 1.474-1.035 0.516-2.198 0.996-3.487 1.442v0c-2.309 0.798-4.467 1.12-6.474 0.965-2.002-0.163-3.819-0.724-5.449-1.682-1.625-0.961-3.05-2.271-4.277-3.93-1.226-1.659-2.224-3.601-2.993-5.826v0c-0.88-2.547-1.306-4.913-1.278-7.098 0.034-2.188 0.436-4.154 1.204-5.899 0.777-1.741 1.9-3.241 3.367-4.502 1.461-1.259 3.202-2.237 5.222-2.935v0c1.232-0.426 2.402-0.758 3.512-0.998 1.118-0.235 2.158-0.404 3.12-0.507 0.963-0.103 1.865-0.171 2.709-0.203z" fill="#ffffff" data-fill-palette-color="primary"></path><path d="M209.505 247.184v0c1.746 2.44 3.593 3.867 5.543 4.283 1.955 0.412 3.863-0.048 5.723-1.379v0c1.838-1.315 2.848-2.935 3.032-4.861 0.192-1.924-0.558-4.069-2.253-6.437v0c-1.801-2.517-3.693-4.001-5.676-4.451-1.974-0.449-3.907 0.004-5.8 1.359v0c-1.888 1.351-2.892 2.991-3.013 4.922-0.121 1.931 0.694 4.119 2.444 6.564zM206.263 249.441v0c-1.37-1.915-2.209-3.723-2.516-5.423-0.301-1.704-0.262-3.276 0.118-4.716 0.378-1.431 0.99-2.686 1.836-3.768 0.846-1.081 1.749-1.965 2.709-2.652v0c0.905-0.648 1.998-1.208 3.278-1.682 1.276-0.479 2.633-0.67 4.072-0.572 1.434 0.092 2.901 0.544 4.401 1.357 1.494 0.817 2.927 2.183 4.297 4.098v0c1.422 1.987 2.296 3.857 2.624 5.609 0.318 1.75 0.285 3.343-0.099 4.778-0.384 1.435-1.004 2.696-1.861 3.785-0.857 1.089-1.751 1.967-2.684 2.634v0c-0.955 0.683-2.069 1.255-3.342 1.715-1.277 0.455-2.629 0.629-4.057 0.524-1.423-0.1-2.89-0.581-4.401-1.445-1.511-0.863-2.969-2.278-4.375-4.242z" fill="#ffffff" data-fill-palette-color="primary"></path><path d="M237.337 222.481v0c2.374 1.834 4.555 2.669 6.542 2.506 1.991-0.169 3.686-1.158 5.084-2.968v0c1.382-1.789 1.883-3.631 1.504-5.528-0.369-1.898-1.706-3.736-4.011-5.516v0c-2.449-1.892-4.688-2.768-6.717-2.628-2.019 0.138-3.74 1.129-5.164 2.971v0c-1.419 1.837-1.908 3.697-1.467 5.581 0.44 1.884 1.85 3.744 4.229 5.582zM234.882 225.576v0c-1.864-1.44-3.187-2.929-3.97-4.469-0.779-1.545-1.194-3.062-1.245-4.55-0.05-1.479 0.175-2.858 0.674-4.137 0.499-1.279 1.109-2.385 1.83-3.319v0c0.68-0.881 1.565-1.732 2.655-2.555 1.084-0.826 2.329-1.4 3.735-1.721 1.4-0.325 2.935-0.314 4.605 0.033 1.666 0.352 3.431 1.248 5.295 2.688v0c1.934 1.494 3.309 3.032 4.128 4.615 0.808 1.585 1.235 3.119 1.28 4.604 0.045 1.484-0.185 2.871-0.692 4.161-0.507 1.289-1.111 2.388-1.812 3.295v0c-0.718 0.929-1.62 1.797-2.707 2.605-1.092 0.803-2.337 1.36-3.733 1.67-1.392 0.314-2.935 0.275-4.631-0.117-1.695-0.392-3.499-1.326-5.412-2.803z" fill="#ffffff" data-fill-palette-color="primary"></path><path d="M266.725 197.57l-32.342-12.839 0.984-3.608 19.472 7.731-4.638-12.982 1.885-4.75 4.504 12.687 17.351-4.416-1.732 4.362-14.425 3.475 1.162 3.254 9.15 3.632z" fill="#ffffff" data-fill-palette-color="primary"></path></g></svg></g></svg></g></svg></g></svg></g><defs></defs></svg><rect width="280" height="280" fill="none" stroke="none" visibility="hidden"></rect></g></svg></g></svg>